<?xml version="1.0" encoding="UTF-8"?> <svg xmlns="http://www.w3.org/2000/svg" width="150" height="32" viewBox="0 0 150 32" fill="none"> <path d="M24.7124 15.0954V30.7654H16.9857V16.2192C17.0505 15.6122 16.9811 14.9985 16.7823 14.4208C16.5836 13.8431 16.2604 13.3153 15.835 12.874C15.4097 12.4328 14.8926 12.0888 14.3196 11.8659C13.7466 11.643 13.1315 11.5466 12.5172 11.5833C9.68406 11.5833 7.72665 13.218 7.72665 16.8322V30.7654H0V5.22337H7.72665V7.64986C8.62016 6.59592 9.75159 5.76567 11.0292 5.22648C12.3068 4.68729 13.6945 4.45433 15.0798 4.54651C20.2953 4.54651 24.7124 8.21179 24.7124 15.0954Z" fill="white"></path> <path d="M41.0158 24.6352C41.9267 24.6614 42.8335 24.5039 43.6813 24.1725C44.529 23.841 45.3002 23.3424 45.948 22.7067L50.9317 27.6364C49.6204 28.9284 48.0527 29.9362 46.3281 30.5957C44.6034 31.2553 42.7593 31.5522 40.9128 31.4677C32.1173 31.4677 26.67 25.6058 26.67 18.007C26.6139 16.2156 26.93 14.4318 27.5988 12.7668C28.2676 11.1017 29.2747 9.59089 30.5575 8.32834C31.8402 7.06578 33.3712 6.07849 35.0552 5.42785C36.7392 4.77722 38.5402 4.47717 40.3461 4.54636C47.8539 4.54636 53.4171 10.3061 53.4171 18.007C53.4214 19.0365 53.3179 20.0638 53.108 21.072H34.8474C35.8261 23.7156 38.1827 24.6352 41.0158 24.6352ZM45.6904 15.3506C45.3187 14.1867 44.5828 13.1703 43.5895 12.449C42.5962 11.7277 41.397 11.3388 40.1659 11.3388C38.9347 11.3388 37.7355 11.7277 36.7422 12.449C35.7489 13.1703 35.013 14.1867 34.6413 15.3506H45.6904Z" fill="white"></path> <path d="M136.955 0H144.681V5.26166H150V13.1414H144.707V20.6763C144.707 22.8729 146.613 23.0644 150 22.8729V30.7654C139.929 31.7871 136.993 28.7731 136.993 21.6341L136.955 0Z" fill="white"></path> <path d="M74.7941 31.4804L69.115 25.9122L76.9961 18.0836L69.115 10.2677L74.7941 4.6485L88.3414 18.0836L74.7941 31.4804ZM72.5791 18.0325L59.0317 4.59741L53.417 10.2167L61.2982 18.0325L53.417 25.9122L59.0961 31.5315L72.5791 18.0325ZM90.6079 4.59741L84.9288 10.2167L90.6079 15.8487L96.2741 10.2167L90.6079 4.59741ZM90.6079 20.2291L84.8773 25.9122L90.5564 31.5315L96.2226 25.9122L90.6079 20.2291Z" fill="white"></path> <path d="M107.748 18.0071C107.74 15.3331 108.533 12.717 110.025 10.49C111.518 8.26293 113.643 6.52514 116.132 5.49659C118.621 4.46804 121.361 4.19499 124.007 4.71201C126.652 5.22903 129.084 6.51286 130.993 8.40098C132.902 10.2891 134.204 12.6966 134.733 15.3186C135.261 17.9407 134.994 20.6594 133.964 23.1306C132.934 25.6018 131.187 27.7143 128.946 29.2007C126.705 30.6871 124.069 31.4805 121.373 31.4805C119.581 31.501 117.803 31.1667 116.143 30.4973C114.484 29.8279 112.975 28.8369 111.706 27.5822C110.438 26.3275 109.434 24.8343 108.754 23.1902C108.075 21.5461 107.732 19.784 107.748 18.0071ZM127.284 18.0071C127.284 16.4524 126.661 14.9614 125.552 13.8621C124.444 12.7628 122.94 12.1452 121.373 12.1452C119.805 12.1452 118.302 12.7628 117.193 13.8621C116.085 14.9614 115.462 16.4524 115.462 18.0071C115.462 19.5618 116.085 21.0527 117.193 22.1521C118.302 23.2514 119.805 23.869 121.373 23.869C122.94 23.869 124.444 23.2514 125.552 22.1521C126.661 21.0527 127.284 19.5618 127.284 18.0071Z" fill="white"></path> <path d="M98.0767 5.26147H105.803V30.8035H98.0767V5.26147Z" fill="white"></path> </svg> 