<?xml version="1.0" encoding="UTF-8"?> <svg xmlns="http://www.w3.org/2000/svg" width="215" height="86" viewBox="0 0 215 86" fill="none"> <path d="M108.825 8.99101C108.825 9.34355 109.176 9.63734 109.526 9.63734C109.935 9.6961 110.286 9.34355 110.286 8.99101C110.286 8.69723 109.994 8.40344 109.526 8.40344C109.117 8.40344 108.825 8.63847 108.825 8.99101Z" fill="#D83E54"></path> <path d="M110.227 6.87568C110.227 6.87568 110.169 6.87567 110.111 6.81692C110.111 6.75816 110.111 6.6994 110.052 6.6994C109.818 6.52313 109.585 6.46438 109.292 6.52313C109.175 6.58189 108.942 6.58189 108.942 6.75816C108.883 6.81692 108.825 6.81692 108.766 6.87568C108.708 7.1107 108.708 7.34573 108.942 7.58076C109.117 7.75703 109.643 7.75703 109.818 7.63952C110.169 7.58076 110.344 7.1107 110.227 6.87568Z" fill="#D83E54"></path> <path d="M114.727 17.4521C114.727 18.0984 115.195 18.3922 115.721 18.3922C116.188 18.4509 116.714 17.9221 116.714 17.4521C116.714 16.982 116.247 16.4532 115.721 16.5119C115.136 16.5119 114.669 16.982 114.727 17.4521Z" fill="#D83E54"></path> <path d="M124.662 11.7526C124.604 12.1639 125.013 12.4577 125.364 12.4577C125.831 12.4577 126.123 12.1051 126.123 11.8113C126.123 11.4588 125.773 11.0475 125.364 11.1062C125.013 11.0475 124.662 11.3413 124.662 11.7526Z" fill="#D83E54"></path> <path d="M122.851 14.9255C122.734 15.1018 122.617 15.278 122.675 15.5131C122.851 15.4543 123.026 15.3956 123.201 15.278C123.435 15.1605 123.552 15.2193 123.611 15.4543C123.669 15.6893 123.669 15.9244 123.727 16.2182C123.844 16.1594 124.02 16.1006 124.136 15.9831C124.487 15.7481 124.487 15.3956 124.429 15.043C124.37 14.7492 124.078 14.4554 123.727 14.4554C123.377 14.4554 123.085 14.6317 122.851 14.9255Z" fill="#D83E54"></path> <path d="M123.903 13.6328C123.903 14.0441 124.253 14.2791 124.604 14.3379C124.896 14.3379 125.305 14.1028 125.305 13.6915C125.364 13.2802 124.955 13.0452 124.604 12.9865C124.312 12.9865 123.903 13.2215 123.903 13.6328Z" fill="#D83E54"></path> <path d="M126.357 9.9311C126.357 9.57856 126.007 9.22602 125.656 9.28477C125.188 9.28477 124.955 9.63732 124.896 9.9311C124.896 10.2836 125.247 10.6362 125.656 10.6362C126.007 10.5774 126.357 10.3424 126.357 9.9311Z" fill="#D83E54"></path> <path d="M101.461 4.643C101.929 4.643 102.279 4.2317 102.279 3.8204C102.279 3.4091 101.87 3.05656 101.403 2.9978C100.935 2.9978 100.526 3.46786 100.526 3.8204C100.526 4.17294 100.935 4.643 101.461 4.643Z" fill="#D83E54"></path> <path d="M98.247 4.23167C98.3055 4.52545 98.5393 4.64296 98.773 4.81924C99.1237 4.99551 99.7665 4.70172 99.8834 4.34918C100 3.93788 99.9419 3.70285 99.5328 3.40907C99.4159 3.29155 99.2406 3.2328 99.0652 3.35031L99.0068 3.29155C98.8899 3.29155 98.773 3.35031 98.6561 3.40907C98.3639 3.52658 98.1886 3.87912 98.247 4.11415C98.3055 4.11415 98.247 4.17291 98.247 4.23167Z" fill="#D83E54"></path> <path d="M103.682 4.70173C104.091 4.70173 104.559 4.34919 104.559 3.93789C104.559 3.40907 104.091 3.05653 103.74 3.05653C103.331 2.99778 102.864 3.40907 102.864 3.82037C102.864 4.34919 103.273 4.64297 103.682 4.70173Z" fill="#D83E54"></path> <path d="M108.825 10.8125C108.825 11.2238 109.117 11.4588 109.526 11.4588C109.935 11.4588 110.286 11.2238 110.228 10.8125C110.228 10.4012 109.877 10.1661 109.526 10.1661C109.176 10.2249 108.825 10.4012 108.825 10.8125Z" fill="#D83E54"></path> <path d="M109.526 5.87688C110.753 5.93564 111.922 4.87801 111.922 3.82038C111.922 3.58535 111.922 3.17405 111.922 3.17405C111.922 3.17405 111.864 2.52772 111.279 2.11643C111.046 1.99891 110.812 1.8814 110.52 1.82264C110.461 1.76388 110.344 1.76388 110.286 1.70513C109.994 1.58761 109.701 1.41134 109.526 1.00004V0.941284V1.00004C109.351 1.35258 109.059 1.52885 108.825 1.64637C108.708 1.70513 108.591 1.70513 108.474 1.76388C108.24 1.82264 108.007 1.8814 107.773 2.05767C107.188 2.41021 107.13 3.1153 107.13 3.1153C107.072 3.29157 107.13 3.46784 107.13 3.64411C107.13 4.99552 108.182 5.75936 109.526 5.87688Z" fill="#D83E54"></path> <path d="M108.649 12.3402C108.474 12.6339 108.533 12.9277 108.649 13.1628C108.766 13.5153 108.942 13.5153 109.175 13.2803C109.409 13.0452 109.526 13.0452 109.76 13.2215C109.818 13.2803 109.877 13.339 109.935 13.3978C109.994 13.5153 110.111 13.5153 110.227 13.4565C110.286 13.3978 110.403 13.2803 110.403 13.2215C110.695 12.5164 110.227 11.9289 109.526 11.9289C109.117 11.8701 108.825 12.0464 108.649 12.3402Z" fill="#D83E54"></path> <path d="M128.403 8.6972C128.812 8.6972 129.279 8.2859 129.279 7.8746C129.279 7.4633 128.812 7.052 128.403 7.052C127.994 7.052 127.526 7.4633 127.526 7.8746C127.526 8.34466 127.935 8.6972 128.403 8.6972Z" fill="#D83E54"></path> <path d="M96.4353 5.40677C96.5522 5.46553 96.6691 5.46553 96.786 5.46553C97.0197 5.58304 97.2535 5.46553 97.4288 5.34801C97.6626 5.17174 97.7795 4.93671 97.6626 4.58417C97.6626 4.46665 97.6626 4.34914 97.6042 4.29038C97.3704 3.9966 96.9028 3.82033 96.4937 3.9966C96.2015 4.17287 96.0262 4.34914 95.9678 4.64293C96.0262 4.99547 96.1431 5.2305 96.4353 5.40677Z" fill="#D83E54"></path> <path d="M125.481 8.10959C125.89 8.10959 126.182 7.75705 126.182 7.46326C126.182 7.16948 125.89 6.81694 125.481 6.75818C125.072 6.75818 124.721 7.11072 124.721 7.40451C124.721 7.75705 125.13 8.10959 125.481 8.10959Z" fill="#D83E54"></path> <path d="M130.39 9.40228C130.857 9.40228 131.266 8.99098 131.266 8.57968C131.266 8.16838 130.799 7.75708 130.39 7.75708C129.922 7.75708 129.513 8.16838 129.572 8.57968C129.513 9.04973 129.922 9.40228 130.39 9.40228Z" fill="#D83E54"></path> <path d="M132.26 10.695C132.727 10.695 133.137 10.3424 133.137 9.87238C133.078 9.46108 132.844 9.04978 132.26 9.10853C131.792 9.10853 131.442 9.46108 131.383 9.93113C131.383 10.3424 131.792 10.695 132.26 10.695Z" fill="#D83E54"></path> <path d="M124.02 6.69948C124.546 6.69948 124.838 6.28818 124.896 5.93564C124.896 5.46558 124.487 5.11304 124.02 5.11304C123.552 5.11304 123.143 5.40682 123.143 5.87688C123.143 6.34694 123.552 6.69948 124.02 6.69948Z" fill="#D83E54"></path> <path d="M132.669 11.5764C132.727 11.9877 132.961 12.399 133.546 12.399C134.072 12.399 134.364 12.0464 134.422 11.5764C134.481 11.1651 134.072 10.7538 133.604 10.7538C133.078 10.8125 132.669 11.1651 132.669 11.5764Z" fill="#D83E54"></path> <path d="M126.357 18.5097C126.299 18.4509 126.299 18.3922 126.24 18.3922C125.948 18.3334 125.598 18.2746 125.364 18.5097C125.072 18.7447 124.955 19.2735 125.247 19.5673C125.305 19.7436 125.539 19.8611 125.714 19.8611C126.416 19.9786 126.883 19.3323 126.65 18.8035C126.65 18.6859 126.591 18.5097 126.357 18.5097Z" fill="#D83E54"></path> <path d="M113.851 4.878C114.143 4.58422 114.202 4.29043 113.909 3.99665C113.734 3.82037 113.559 3.70286 113.325 3.82037C113.091 3.82037 112.799 4.0554 112.857 4.29043C112.741 4.4667 112.799 4.64297 112.916 4.81924C113.033 5.05427 113.559 5.11303 113.851 4.878Z" fill="#D83E54"></path> <path d="M112.39 13.809C112.039 13.8678 111.922 13.7503 111.864 13.3977C111.864 13.339 111.864 13.2802 111.864 13.2215C111.864 12.9277 111.864 12.6927 111.747 12.3989C111.63 12.0463 111.572 11.6938 111.572 11.2825C111.513 10.8124 111.572 10.3424 111.513 9.87232C111.513 9.63729 111.455 9.40227 111.455 9.10848C111.455 9.04972 111.513 9.04972 111.513 8.99097C111.513 8.63842 111.513 8.22713 111.513 7.87458C111.572 7.34577 111.572 6.81696 111.63 6.28814C111.63 6.05311 111.688 5.81809 111.688 5.58306C111.338 5.75933 111.046 5.99436 110.695 6.17063C110.461 6.22939 110.286 6.28814 109.994 6.3469C110.11 6.40566 110.227 6.46441 110.286 6.52317C110.286 6.52317 110.286 6.58193 110.344 6.58193C110.52 6.81696 110.636 7.05198 110.461 7.34577C110.344 7.52204 110.227 7.69831 110.169 7.87458C110.11 7.87458 109.994 7.93334 109.877 7.9921C110.286 8.22712 110.578 8.52091 110.578 8.93221C110.578 9.34351 110.344 9.63729 109.994 9.87232C110.344 10.1074 110.578 10.4011 110.636 10.7537C110.636 11.165 110.461 11.4588 110.169 11.6938C110.929 12.2226 110.987 12.9864 110.403 13.6328C110.461 13.7503 110.52 13.9266 110.578 14.1028C110.636 14.0441 110.695 13.9853 110.812 13.9853C111.162 13.8678 111.513 13.8678 111.805 14.0441C112.214 14.2791 112.507 14.1616 112.857 13.9266C113.091 13.7503 113.208 13.574 113.149 13.2802C113.149 13.1627 113.091 13.104 113.091 12.9864C113.033 12.6927 112.857 12.4576 112.799 12.1638C112.682 11.6938 112.623 11.2237 112.565 10.7537C112.507 10.5187 112.507 10.2836 112.507 10.0486C112.507 9.98984 112.507 9.98984 112.507 9.93108C112.507 8.99097 112.507 7.9921 112.507 7.05198C112.507 6.87571 112.565 6.81696 112.74 6.81696C113.909 6.81696 115.02 6.81696 116.188 6.81696C117.065 6.81696 118 6.93447 118.877 7.11074C119.461 7.22825 120.046 7.40453 120.572 7.63955C121.039 7.87458 121.507 8.16837 121.857 8.52091C121.974 8.63842 122.091 8.75594 122.149 8.87345C122.266 9.28475 122.383 9.69605 122.325 10.1074C122.266 10.3424 122.208 10.5774 122.208 10.8124C122.208 10.8712 122.208 10.9299 122.149 10.9887C121.857 11.5175 121.623 12.0463 121.331 12.5751C121.039 13.1627 120.572 13.6328 120.104 14.1028C119.87 14.3379 119.695 14.5729 119.812 14.9254C119.87 15.2192 120.104 15.4542 120.279 15.6893C120.455 15.9243 120.747 16.0418 120.688 16.3944C120.688 16.5706 120.747 16.6881 120.922 16.7469C121.156 16.1006 121.39 15.4542 121.682 14.8079C122.033 14.9254 122.208 15.1605 122.325 15.4542C122.559 15.3367 122.559 15.3367 122.559 15.1605C122.559 14.6904 123.026 14.2203 123.494 14.2203C123.61 14.2203 123.669 14.2203 123.786 14.2203C123.26 13.4565 123.786 12.5751 124.662 12.4576C124.195 11.8113 124.253 11.2237 124.955 10.6949C124.838 10.5774 124.721 10.4599 124.662 10.3424C124.487 10.0486 124.487 9.69605 124.662 9.34351C124.779 9.10848 124.896 8.99097 125.13 8.87345C125.364 8.75594 125.656 8.69718 125.948 8.8147C126.007 8.8147 126.123 8.8147 126.182 8.87345C126.357 9.04972 126.591 9.16724 126.825 9.16724C127.76 9.34351 128.636 9.63729 129.455 10.0486C130.097 10.3424 130.682 10.6949 131.208 11.1062C131.792 11.5763 132.143 12.1051 132.377 12.8102C132.435 13.104 132.494 13.339 132.494 13.6328C132.494 14.1616 132.552 14.7492 132.318 15.2192C132.201 15.513 132.026 15.8068 131.851 16.1006C131.559 16.5119 131.149 16.9232 130.799 17.3345C130.623 17.5107 130.448 17.687 130.214 17.8045C130.097 17.922 129.864 17.8633 129.747 17.687C129.688 17.6283 129.688 17.452 129.747 17.3932C130.039 17.0407 130.39 16.6881 130.682 16.3356C130.974 16.0418 131.266 15.748 131.442 15.3955C131.734 14.9254 131.851 14.3379 131.851 13.809C131.851 13.6328 131.792 13.3977 131.734 13.2215C131.734 13.104 131.734 12.9864 131.675 12.8689C131.5 12.3989 131.149 12.0463 130.799 11.6938C130.39 11.2825 129.922 10.9887 129.396 10.6949C128.87 10.4599 128.344 10.2249 127.818 10.0486C127.701 10.0486 127.643 9.98984 127.526 9.98984C127.351 9.93108 127.175 9.87232 127 9.75481C127.059 10.1661 127.175 10.5187 127.234 10.8712C127.292 11.635 127.351 12.3401 127.175 13.104C127.117 13.3977 127.059 13.7503 126.942 14.0441C126.825 14.4554 126.649 14.8079 126.474 15.1605C126.416 15.3367 126.299 15.513 126.182 15.6305C126.065 15.8068 125.89 15.8655 125.714 15.8068C125.539 15.748 125.422 15.5718 125.481 15.3955C125.539 15.2192 125.597 15.1017 125.656 14.9254C125.831 14.5729 126.065 14.2203 126.24 13.809C126.357 13.6328 126.357 13.3977 126.416 13.2215C126.533 12.8689 126.533 12.5164 126.591 12.0463C126.299 12.3401 126.065 12.5164 125.656 12.5164C125.948 12.9277 126.123 13.2802 125.89 13.7503C125.656 14.2203 125.247 14.3966 124.779 14.3966C125.13 15.0429 125.013 15.6305 124.312 16.0418C124.546 16.0418 124.721 16.0418 124.896 16.0418C124.604 16.3356 124.37 16.6294 124.078 16.9232C124.487 16.9232 124.896 16.9232 125.247 16.9232C125.539 16.9232 125.831 16.8057 126.123 16.7469C126.182 16.7469 126.182 16.6881 126.24 16.6881C126.357 16.4531 126.474 16.2181 126.591 15.9831C126.766 15.6305 126.825 15.3367 127 14.9842C127.234 14.5141 127.351 14.0441 127.468 13.574C127.526 13.2802 127.526 12.9864 127.584 12.6927C127.643 11.8701 127.643 11.1062 127.409 10.2836C127.409 10.2249 127.409 10.1074 127.351 10.0486C127.526 10.1074 127.701 10.1074 127.818 10.1661C127.877 10.1661 127.877 10.2249 127.935 10.2249C128.461 10.4599 128.987 10.6949 129.513 10.9299C129.747 11.0475 129.981 11.165 130.214 11.3412C130.565 11.635 130.857 11.9288 131.149 12.2814C131.325 12.5164 131.442 12.8102 131.559 13.104C131.617 13.339 131.617 13.6328 131.559 13.8678C131.5 14.1616 131.442 14.3966 131.266 14.6316C131.091 14.9254 130.799 15.1605 130.565 15.4542C130.331 15.748 130.039 15.9831 129.805 16.2181C129.571 16.5119 129.338 16.8057 129.104 17.0407C128.812 17.3932 128.87 17.6283 129.221 17.922C129.338 17.9808 129.396 18.0983 129.455 18.2158C129.572 18.3333 129.688 18.5096 129.805 18.6271C129.864 18.5684 129.922 18.4509 129.922 18.3921C130.273 17.8045 130.857 17.7458 131.383 18.1571C131.559 18.2746 131.617 18.3333 131.792 18.1571C131.442 17.7458 131.266 17.3345 131.559 16.8057C131.851 16.2768 132.318 16.1593 132.903 16.2181C132.61 15.9243 132.494 15.5718 132.552 15.2192C132.669 14.8667 132.844 14.5729 133.312 14.3966C132.903 14.1616 132.786 13.8678 132.786 13.5153C132.727 13.1627 132.903 12.8689 133.136 12.6339C132.26 12.3401 132.201 11.7525 132.377 10.9887C132.143 11.165 131.909 11.0475 131.734 10.9887C131.383 10.8712 131.091 10.6949 131.033 10.3424C130.974 10.1661 130.974 9.98984 130.974 9.81357C130.974 9.69605 130.916 9.63729 130.799 9.69605C130.273 9.98984 129.396 9.63729 129.338 9.04972C129.338 8.87345 129.221 8.8147 129.046 8.93221C128.929 8.99097 128.87 9.04972 128.753 9.10848C128.286 9.226 127.701 9.10848 127.526 8.52091C127.468 8.28588 127.351 8.22713 127.059 8.22713C126.825 8.22713 126.649 8.22713 126.416 8.22713C126.24 8.22713 126.065 8.28588 125.948 8.46215C125.831 8.46215 125.714 8.52091 125.539 8.52091C124.779 8.63842 124.078 7.81583 124.429 7.22826C124.429 7.1695 124.429 7.1695 124.429 7.11074C124.195 7.1695 124.02 7.22826 123.844 7.28701C123.786 7.28701 123.786 7.22826 123.727 7.22826C123.26 7.1695 122.968 6.93447 122.792 6.58193C122.734 6.3469 122.675 6.17063 122.617 5.9356C122.266 6.11187 121.916 6.17063 121.507 5.99436C121.156 5.81809 120.922 5.5243 120.864 5.113C120.572 5.46554 120.162 5.64181 119.695 5.5243C119.227 5.40679 118.935 5.113 118.818 4.64294C118.701 4.93673 118.468 5.113 118.234 5.23051C117.825 5.46554 117.007 5.28927 116.831 4.81922C116.831 4.76046 116.773 4.76046 116.714 4.7017C116.656 4.76046 116.597 4.76046 116.597 4.81922C116.539 5.113 116.305 5.28927 116.013 5.40679C115.604 5.58306 115.136 5.46554 114.844 5.23051C114.727 5.17176 114.669 5.05424 114.552 4.93673C114.435 5.28927 114.201 5.46554 113.909 5.58306C113.5 5.75933 112.857 5.64181 112.623 5.28927C112.565 5.17176 112.448 5.17176 112.273 5.17176C112.331 5.40679 112.39 5.64181 112.448 5.87684C112.916 5.87684 113.325 5.87684 113.792 5.87684C114.727 5.81809 115.721 5.75933 116.656 5.75933C117.533 5.75933 118.468 5.75933 119.344 5.81809C120.338 5.81809 121.214 6.05311 122.091 6.52317C122.5 6.7582 122.909 6.99323 123.201 7.34577C123.26 7.40453 123.377 7.52204 123.435 7.5808C123.494 7.69831 123.552 7.81583 123.61 7.93334C123.961 8.52091 124.078 9.16724 124.136 9.81357C124.195 10.2836 124.136 10.7537 124.02 11.165C123.903 11.4588 123.844 11.8113 123.727 12.0463C123.552 12.4576 123.318 12.8102 123.084 13.2215C122.909 13.5153 122.734 13.809 122.5 14.1028C122.325 14.3379 122.033 14.4554 121.74 14.3379C121.565 14.2791 121.39 14.1028 121.39 13.9266C121.39 13.7503 121.507 13.6328 121.682 13.574C122.091 13.4565 122.383 13.2215 122.559 12.8102C122.617 12.6339 122.675 12.4576 122.792 12.3401C123.084 11.8113 123.26 11.2237 123.377 10.6362C123.494 9.98984 123.494 9.40227 123.26 8.75594C123.201 8.57967 123.084 8.34464 122.968 8.16837C122.968 8.10961 122.851 8.10961 122.792 8.05085C122.734 7.9921 122.734 7.93334 122.675 7.81583C122.325 7.34577 121.857 6.99323 121.273 6.69944C120.688 6.40566 119.987 6.28814 119.344 6.17063C118.935 6.11187 118.468 6.11187 118 6.11187C117.182 6.11187 116.305 6.17063 115.487 6.22938C114.494 6.22938 113.5 6.28814 112.507 6.28814C112.39 6.28814 112.273 6.28814 112.156 6.28814C112.156 6.3469 112.156 6.3469 112.156 6.40566C112.156 7.40453 112.156 8.4034 112.156 9.40227C112.156 9.46102 112.156 9.51978 112.214 9.57854C112.214 9.63729 112.156 9.69605 112.156 9.69605C112.156 10.4011 112.156 11.165 112.331 11.8701C112.331 11.9288 112.39 11.9876 112.39 12.0463C112.507 12.4576 112.623 12.8689 112.682 13.2802C112.74 13.6915 112.623 13.7503 112.39 13.809Z" fill="#D83E54"></path> <path d="M115.312 4.70172C115.721 4.70172 116.188 4.34917 116.188 3.87912C116.247 3.46782 115.779 3.05652 115.37 3.05652C114.961 3.05652 114.494 3.40906 114.494 3.87912C114.494 4.40793 114.903 4.70172 115.312 4.70172Z" fill="#D83E54"></path> <path d="M119.403 4.70181C119.753 4.93683 120.104 4.93683 120.455 4.70181C120.689 4.52553 120.864 4.23175 120.747 3.93796C120.805 3.64418 120.455 3.35039 120.104 3.29164C119.695 3.11537 119.169 3.46791 119.111 3.82045C119.052 4.17299 119.169 4.58429 119.403 4.70181Z" fill="#D83E54"></path> <path d="M117.65 4.64296C118.234 4.64296 118.526 4.23166 118.526 3.82036C118.526 3.46782 118.176 3.05652 117.65 3.05652C117.124 3.05652 116.773 3.46782 116.773 3.87912C116.773 4.23166 117.124 4.64296 117.65 4.64296Z" fill="#D83E54"></path> <path d="M121.624 5.40679C121.857 5.58306 122.15 5.58306 122.442 5.52431C122.734 5.52431 122.851 5.28928 122.968 5.11301C123.143 4.81922 122.968 4.34917 122.676 4.11414C122.383 3.87911 121.857 3.87911 121.624 4.11414C121.507 4.23165 121.331 4.29041 121.39 4.52544L121.331 4.58419C121.273 4.87798 121.331 5.17176 121.624 5.40679Z" fill="#D83E54"></path> <path d="M105.61 4.9955C106.019 4.9955 106.253 4.76047 106.253 4.40792C106.253 4.1729 105.844 3.7616 105.61 3.7616C105.318 3.7616 104.909 4.05538 104.968 4.40792C104.968 4.76047 105.26 4.9955 105.61 4.9955Z" fill="#D83E54"></path> <path d="M86.2078 15.8068C86.2078 15.3368 85.8572 15.043 85.3312 15.043C84.8637 15.043 84.4546 15.4543 84.4546 15.8656C84.4546 16.2769 84.8637 16.6882 85.3312 16.6882C85.9156 16.5707 86.2078 16.2181 86.2078 15.8068Z" fill="#D83E54"></path> <path d="M115.019 24.5616C115.019 24.0916 114.669 23.739 114.143 23.739C113.734 23.739 113.208 24.1503 113.266 24.5616C113.266 25.0317 113.675 25.3255 114.143 25.3842C114.61 25.3842 115.019 24.9729 115.019 24.5616Z" fill="#D83E54"></path> <path d="M109.584 25.3255C109.818 25.2079 110.052 25.0904 110.344 24.9142C110.636 24.7966 110.87 24.6204 111.162 24.5029C110.695 24.2678 110.227 23.974 109.76 23.739C109.584 23.6215 109.409 23.6215 109.234 23.739C108.883 23.9153 108.591 24.0916 108.24 24.2678C108.123 24.3266 108.007 24.3853 107.89 24.5029C107.89 24.5029 107.89 24.5616 107.948 24.5616C108.416 24.8554 108.942 25.0904 109.409 25.3842C109.468 25.3842 109.526 25.3842 109.584 25.3255Z" fill="#D83E54"></path> <path d="M98.8312 26.148C99.0065 26.2068 99.2403 26.2068 99.4156 26.2068C99.8832 26.2068 100.351 26.148 100.76 26.0305C101.11 25.913 101.52 25.7367 101.753 25.3842C101.987 25.0904 101.929 24.6791 101.636 24.5028C101.286 24.2678 100.877 24.2091 100.468 24.1503C100 24.0915 99.5325 24.2091 99.0065 24.3853C98.6559 24.5028 98.3637 24.6791 98.0715 24.9729C97.8377 25.2079 97.8377 25.678 98.1299 25.8543C98.2468 25.9718 98.539 26.0893 98.8312 26.148Z" fill="#D83E54"></path> <path d="M93.1624 27.4408C93.6299 27.382 93.9806 27.147 94.1559 26.7945C94.4481 26.2657 94.1559 25.7956 93.5715 25.6781C93.0455 25.5606 92.578 25.6781 92.1689 25.9719C91.9351 26.1481 91.7014 26.3832 91.7598 26.7357C91.7598 27.0883 91.9351 27.3233 92.2858 27.4408C92.6364 27.4408 92.8702 27.4408 93.1624 27.4408Z" fill="#D83E54"></path> <path d="M96.9027 25.8543C96.9611 25.443 96.4351 25.0317 96.026 25.0317C95.6169 25.0317 95.1494 25.443 95.1494 25.8543C95.1494 26.2656 95.5585 26.6769 96.026 26.6769C96.552 26.6182 96.8442 26.2656 96.9027 25.8543Z" fill="#D83E54"></path> <path d="M126.299 28.6158C125.773 28.4396 125.247 28.2633 124.721 28.087C124.253 27.9695 123.786 27.852 123.318 27.7345C122.5 27.5582 121.623 27.3819 120.805 27.2057C120.396 27.1469 120.045 27.0881 119.636 27.0294C119.169 26.9706 118.701 26.9119 118.234 26.8531C118.117 26.8531 117.942 26.8531 117.825 26.8531C117.474 26.7944 117.123 26.7356 116.773 26.7356C116.188 26.6768 115.604 26.6181 115.02 26.5593C113.325 26.5006 111.688 26.4418 109.994 26.3831C109.058 26.3831 108.123 26.3831 107.13 26.4418C106.02 26.5006 104.968 26.5593 103.857 26.6181C103.156 26.6768 102.455 26.7356 101.812 26.7944C100.994 26.9119 100.117 27.0294 99.2987 27.1469C98.8896 27.2057 98.4806 27.2644 98.013 27.3232C97.7793 27.3819 97.5455 27.3819 97.2533 27.4407C96.6689 27.5582 96.0845 27.7345 95.4416 27.852C95.0325 27.9695 94.6234 28.0283 94.2143 28.1458C93.7468 28.2633 93.3377 28.4396 92.9286 28.6158C92.6948 28.7333 92.5195 28.8509 92.2857 29.0271C92.1689 29.0859 92.2273 29.2622 92.2857 29.3209C92.4611 29.4384 92.6364 29.4972 92.8117 29.4384C93.1039 29.3797 93.3961 29.2622 93.6883 29.2034C94.3312 29.0271 94.9156 28.8509 95.5585 28.6746C96.0844 28.5571 96.6689 28.4396 97.1948 28.322C97.6624 28.2045 98.1299 28.1458 98.6559 28.087C99.2987 27.9695 99.8832 27.9107 100.526 27.7932C100.76 27.7345 100.994 27.7345 101.227 27.7345C101.929 27.6757 102.63 27.5582 103.331 27.4994C103.857 27.4407 104.383 27.4407 104.909 27.4407C105.435 27.3819 105.903 27.3819 106.429 27.3232C106.896 27.3232 107.305 27.3232 107.773 27.3232C109.526 27.3232 111.221 27.2644 112.974 27.3819C114.026 27.4407 115.078 27.4994 116.13 27.5582C116.773 27.617 117.357 27.6757 117.942 27.7345C118.234 27.7345 118.468 27.7932 118.76 27.7932C119.227 27.852 119.753 27.9695 120.221 28.0283C120.747 28.1458 121.273 28.2045 121.799 28.322C122.442 28.4396 123.084 28.6158 123.727 28.7921C124.02 28.8509 124.312 28.9096 124.604 29.0271C124.838 29.0859 125.071 29.2034 125.364 29.2622C125.656 29.3209 125.948 29.3797 126.299 29.4972C126.416 29.4384 126.533 29.3797 126.649 29.3209C126.766 29.2622 126.766 29.1446 126.649 29.0271C126.591 28.8509 126.474 28.6746 126.299 28.6158Z" fill="#D83E54"></path> <path d="M105.786 24.5616C105.786 24.1503 105.435 23.739 104.909 23.739C104.442 23.739 104.032 24.1503 104.032 24.5029C104.032 25.0317 104.383 25.3255 104.851 25.3255C105.318 25.3842 105.786 24.9729 105.786 24.5616Z" fill="#D83E54"></path> <path d="M133.662 14.9843C133.195 14.9843 132.844 15.3956 132.844 15.7481C132.844 16.2182 133.253 16.5707 133.721 16.5707C134.247 16.5707 134.597 16.1594 134.597 15.7481C134.597 15.3956 134.247 14.9843 133.662 14.9843Z" fill="#D83E54"></path> <path d="M134.071 12.9277C133.604 12.9277 133.195 13.339 133.195 13.7503C133.195 14.1616 133.545 14.5142 134.071 14.5142C134.481 14.5142 134.89 14.1616 134.89 13.6916C134.948 13.2215 134.539 12.9277 134.071 12.9277Z" fill="#D83E54"></path> <path d="M133.955 18.8622C133.779 18.7446 133.604 18.6859 133.429 18.6271C133.253 18.5684 133.02 18.5096 132.786 18.4509C133.137 18.2746 133.312 18.0983 133.37 17.7458C133.429 17.3932 133.312 17.1582 133.02 16.9232C132.611 16.6294 132.143 16.6294 131.792 16.9232C131.617 17.0407 131.559 17.217 131.5 17.3932C131.442 17.8633 131.617 18.1571 132.143 18.3333C131.851 18.4509 131.617 18.6271 131.383 18.7446C131.325 18.7446 131.208 18.7446 131.15 18.6859C130.624 18.3333 130.214 18.3333 129.864 18.8622C129.747 18.9797 129.689 19.1559 129.63 19.2735C129.513 19.2147 129.396 19.1559 129.338 19.0384C128.812 18.6271 127.935 18.6859 127.409 18.9797C127.117 19.1559 126.883 19.4497 126.708 19.8023C126.474 20.2723 126.474 20.6836 126.766 21.1537C126.942 21.4475 127.292 21.565 127.702 21.4475C127.818 21.3887 127.935 21.33 128.111 21.2712C128.111 21.33 128.111 21.3887 128.052 21.3887C127.935 21.5062 127.877 21.6237 127.76 21.7413C127.351 22.2113 126.825 22.4463 126.182 22.3288C126.007 22.2701 125.831 22.1526 125.714 22.035C125.422 21.6825 125.481 21.2712 125.598 20.8599C125.714 20.6249 125.831 20.3898 125.948 20.1548C125.773 20.0961 125.656 20.0373 125.481 19.9785C125.364 19.9198 125.247 19.8023 125.072 19.6848C125.013 19.7435 124.955 19.8023 124.955 19.861C124.779 20.0961 124.604 20.2723 124.487 20.5074C124.429 20.6249 124.312 20.7424 124.253 20.8011C124.195 20.8011 124.195 20.8011 124.137 20.8011C123.961 20.9187 123.786 21.0362 123.552 21.1537C123.435 21.2124 123.377 21.2712 123.26 21.33C123.201 21.33 123.201 21.2712 123.143 21.2712C122.968 21.2712 122.734 21.2712 122.559 21.2712C121.74 21.1537 121.624 20.4486 121.74 19.861C121.857 19.5085 122.091 19.2147 122.325 18.9797H122.383C122.676 18.8034 122.909 18.6859 123.26 18.8034C123.435 18.8622 123.552 18.9797 123.552 19.1559C123.494 19.0972 123.494 19.0972 123.435 19.0972C123.201 18.9209 122.676 18.9797 122.559 19.2147C122.5 19.2147 122.442 19.2147 122.383 19.2735C122.266 19.391 122.208 19.5085 122.15 19.6848C121.974 20.0373 122.266 20.5074 122.676 20.6249C123.085 20.6836 123.435 20.6249 123.786 20.4486C123.844 20.3898 123.903 20.3898 123.961 20.3311C124.312 20.0373 124.604 19.7435 124.721 19.2735C124.838 18.8622 124.838 18.3921 124.604 17.9808C124.312 17.5107 123.961 17.3345 123.435 17.452C123.318 17.452 123.201 17.5108 123.085 17.5108C123.318 17.0995 123.727 16.8057 124.02 16.5119C123.903 16.5119 123.786 16.5119 123.669 16.5706C123.435 16.6294 123.435 16.5706 123.435 16.3944C123.494 16.0418 123.552 15.6305 123.435 15.2192C122.909 15.3367 122.5 15.6305 122.091 15.9243C121.974 15.6893 121.916 15.4543 121.799 15.278H121.74C121.624 15.5718 121.507 15.8656 121.39 16.1006C121.273 16.3944 121.156 16.7469 120.981 17.0407C120.981 17.0407 120.864 17.0995 120.864 17.0407C120.747 16.9819 120.63 16.8644 120.513 16.8057C120.279 16.7469 120.046 16.6882 119.812 16.5706C119.812 16.5706 119.812 16.5706 119.812 16.6294C119.637 16.6294 119.52 16.6294 119.344 16.6294C118.818 16.6882 118.351 16.9232 118 17.3345C117.708 17.687 117.591 18.0396 117.591 18.5096C117.591 18.6859 117.65 18.8034 117.708 18.9797C117.766 19.2735 117.942 19.4497 118.176 19.626C118.585 19.9198 118.994 19.9198 119.461 19.7435C119.87 19.5672 120.046 19.1559 119.987 18.8034C119.929 18.5684 119.812 18.4509 119.578 18.4509C119.461 18.4509 119.344 18.4509 119.227 18.4509C119.227 18.4509 119.227 18.4509 119.227 18.3921C119.286 18.3333 119.403 18.2746 119.461 18.2158C119.695 18.0983 120.046 18.1571 120.163 18.3333C120.338 18.5684 120.338 18.8622 120.221 19.0972C120.104 19.391 119.929 19.6848 119.695 19.9198C119.461 20.1548 119.227 20.3898 118.877 20.5074C118.059 20.7424 117.357 20.4486 116.948 19.8023C116.773 19.5672 116.656 19.2735 116.539 18.9797C116.481 18.8034 116.422 18.5684 116.364 18.3333C115.955 18.5096 115.546 18.6271 115.137 18.3921C115.02 18.6859 114.961 18.9209 114.903 19.2147C114.844 19.3322 114.786 19.5085 114.669 19.626C114.377 19.9198 114.026 20.0961 113.617 20.1548C113.033 20.2723 112.448 20.2136 111.922 19.9785C111.689 19.861 111.455 19.6848 111.279 19.5085C111.163 19.391 111.046 19.2735 110.929 19.1559C110.929 19.0972 110.87 18.9797 110.87 18.9209C110.695 18.6271 110.929 18.0396 111.279 17.922C111.572 17.8633 111.805 17.8633 112.039 17.922C112.098 17.922 112.156 17.922 112.214 17.922C112.214 17.9808 112.273 18.0396 112.273 18.0396C112.331 18.1571 112.39 18.2746 112.448 18.3333C112.448 18.3921 112.39 18.4509 112.39 18.5096C112.331 18.4509 112.273 18.4509 112.273 18.3921C112.214 18.2746 112.156 18.0983 111.922 18.2158C111.864 18.1571 111.864 18.0983 111.805 18.0983C111.513 18.0396 111.338 18.2158 111.221 18.3921C111.104 18.5096 111.163 18.6859 111.221 18.8034C111.338 19.2735 111.63 19.5085 112.098 19.626C112.507 19.6848 112.916 19.6848 113.266 19.5085C113.676 19.2735 113.909 18.9209 114.026 18.5096C114.201 17.9808 114.085 17.3932 113.851 16.9232C113.792 16.8057 113.676 16.7469 113.617 16.6294V16.5706C113.325 16.3944 113.091 16.1593 112.799 16.0418C112.273 15.8656 111.689 15.8656 111.163 16.1006C110.987 16.1593 110.87 16.2181 110.695 16.2769C110.695 15.9243 110.753 15.6305 110.929 15.3367C111.221 14.9842 111.513 14.6317 111.805 14.2791C111.864 14.1616 111.864 14.1616 111.747 14.1028C111.338 13.9266 110.929 13.9266 110.578 14.2791C110.52 14.3379 110.461 14.3379 110.403 14.3966C110.344 13.8678 109.994 13.5153 109.76 13.1627C109.702 13.0452 109.585 12.9865 109.468 13.104C109.234 13.4565 108.942 13.7503 108.825 14.1616C108.825 14.2204 108.766 14.2791 108.766 14.3379C108.065 13.8091 107.89 13.9266 107.364 14.1616C107.89 14.8079 108.533 15.3367 108.533 16.2769C108.416 16.2769 108.357 16.2181 108.299 16.2181C108.007 16.1593 107.773 16.0418 107.481 15.9831C107.013 15.9243 106.487 15.9243 106.078 16.2181C105.903 16.3356 105.786 16.4531 105.669 16.5706H105.611C105.494 16.8057 105.26 17.0995 105.201 17.3345C105.085 17.8633 105.085 18.4509 105.377 18.9797C105.552 19.2147 105.727 19.4497 105.961 19.5672C106.546 19.861 107.364 19.6848 107.773 19.2147C107.89 19.0384 108.007 18.8622 107.89 18.6859C108.065 18.7446 108.007 18.6271 108.007 18.5684C107.948 18.4509 107.89 18.3333 107.831 18.2746C107.714 18.2158 107.598 18.0396 107.364 18.1571C107.13 18.1571 107.013 18.2158 106.896 18.4509C106.896 18.5096 106.838 18.5096 106.779 18.5096C106.779 18.4509 106.721 18.4509 106.721 18.3921C106.721 18.3333 106.721 18.2746 106.721 18.2158C106.779 18.0983 106.896 17.9808 107.013 17.8633C107.13 17.8633 107.189 17.8633 107.305 17.8045C107.539 17.7458 107.831 17.7458 108.007 17.922C108.24 18.0983 108.416 18.3921 108.299 18.7446C108.24 18.8034 108.24 18.9209 108.24 18.9797C108.182 19.0384 108.124 19.0972 108.124 19.1559C107.831 19.7435 107.247 19.9785 106.663 20.0961C106.137 20.2136 105.611 20.1548 105.085 19.9785C104.617 19.861 104.325 19.5672 104.15 19.1559C104.091 18.9209 103.974 18.6859 103.916 18.3921C103.507 18.6271 103.098 18.5684 102.689 18.3333C102.572 18.8622 102.455 19.3322 102.163 19.7435C101.87 20.0961 101.578 20.4486 101.111 20.5074C100.643 20.6249 100.234 20.5074 99.8249 20.2723C99.5911 20.0961 99.3573 19.861 99.182 19.626C98.8898 19.2735 98.7729 18.9209 98.8314 18.4509C98.8898 18.2158 99.0067 18.0983 99.182 18.0983C99.4742 18.0396 99.7664 18.1571 99.8833 18.3921C99.8249 18.3921 99.7664 18.3921 99.708 18.3921C99.3573 18.3921 99.0651 18.6271 99.1236 18.9797C99.182 19.3322 99.4158 19.6848 99.8249 19.8023C100.585 20.0373 101.286 19.626 101.461 18.9209C101.52 18.6859 101.52 18.5096 101.52 18.2746C101.461 17.687 101.169 17.217 100.585 16.9232C100.351 16.8057 100.059 16.7469 99.7664 16.6294C99.2989 16.5119 98.9482 16.6294 98.5392 16.8057C98.4223 16.8644 98.2469 16.9819 98.1301 17.0407C97.8379 16.3944 97.6041 15.8068 97.3703 15.1605H97.3119C97.2534 15.3955 97.1366 15.5718 97.0197 15.8068C96.6106 15.4543 96.2015 15.1605 95.6755 15.1017C95.6755 15.3367 95.6171 15.5718 95.6171 15.8068C95.6171 16.0418 95.6755 16.2181 95.734 16.5119C95.5002 16.4531 95.3249 16.4531 95.0911 16.3944C95.4418 16.7469 95.7924 17.0407 96.0846 17.3932C96.0846 17.3932 96.0846 17.452 96.0262 17.452C95.9677 17.452 95.9093 17.452 95.9093 17.3932C95.1495 17.1582 94.6236 17.452 94.4482 18.2158C94.3314 18.6271 94.3898 19.0384 94.5651 19.391C94.7405 19.7435 95.0327 20.0373 95.3833 20.2723C95.4418 20.3311 95.5002 20.2723 95.5586 20.3311C95.6171 20.3898 95.6171 20.4486 95.6755 20.4486C95.8508 20.5074 96.0846 20.5074 96.2599 20.5074C96.6106 20.5074 96.9028 20.3311 96.9612 20.0961C97.0781 19.7435 97.0781 19.4497 96.7275 19.1559C96.5521 19.0384 96.3768 18.9797 96.2015 18.9209C95.9677 18.8622 95.7924 18.9209 95.6171 19.0972C95.6755 18.8034 96.0262 18.5684 96.2599 18.6859C96.5521 18.7446 96.8444 18.9209 97.0197 19.1559C97.4288 19.626 97.5457 20.2136 97.3119 20.8011C97.2534 20.9187 97.195 20.9774 97.0781 21.0362C96.7859 21.2124 96.4937 21.2712 96.1431 21.2124C96.0846 21.2124 96.0262 21.2124 95.9677 21.2124C95.8508 21.1537 95.734 21.0949 95.6171 21.0362C95.4418 20.9187 95.208 20.8599 95.0327 20.7424C94.9742 20.6836 94.9742 20.6249 94.9158 20.5661C94.7989 20.3898 94.6236 20.2723 94.5067 20.0961C94.3314 19.861 94.156 19.626 94.0392 19.4497C93.7469 19.626 93.4547 19.7435 93.1625 19.861C93.2794 20.0961 93.3963 20.3898 93.5132 20.6836C93.747 21.2712 93.6301 21.6825 93.0457 21.9763C92.7534 22.1526 92.4612 22.0938 92.169 22.035C91.8184 21.9175 91.5262 21.6825 91.2924 21.3887C91.1755 21.2712 91.1171 21.1537 91.0586 20.9774C91.8184 21.4475 92.4612 21.0362 92.5781 20.3311C92.6366 20.0961 92.5781 19.8023 92.4612 19.5672C92.2275 19.0972 91.9353 18.7446 91.4093 18.5684C90.8249 18.3333 90.2989 18.3921 89.8314 18.7446C89.7145 18.8034 89.5976 18.9209 89.5392 18.9797C89.4807 18.8622 89.4223 18.6859 89.3638 18.5684C89.1885 18.2746 88.8963 18.0983 88.5457 18.1571C88.3703 18.2158 88.195 18.2746 88.0197 18.3921C87.9612 18.4509 87.8444 18.4509 87.7859 18.4509C87.5521 18.3921 87.3768 18.2746 87.143 18.1571V18.0396C87.2599 17.922 87.4353 17.8045 87.5521 17.687C87.7275 17.452 87.6106 16.8644 87.3768 16.6882C87.0262 16.4531 86.5586 16.3944 86.1495 16.6294C85.7405 16.8644 85.6236 17.5108 85.9158 17.8633C86.0327 17.9808 86.1495 18.0983 86.2664 18.2158C86.208 18.2158 86.0911 18.2158 86.0327 18.2746C85.7405 18.3921 85.3898 18.3921 85.156 18.6271C85.0392 18.7446 84.9807 18.9209 84.9807 19.0972C85.0392 19.2735 85.0976 19.3322 85.2729 19.3322C85.4482 19.3322 85.6236 19.391 85.7989 19.3322C86.5002 19.2147 87.2015 19.2735 87.8444 19.626C88.2534 19.8023 88.6041 20.0961 88.8379 20.4486C89.3054 21.0949 89.7145 21.7413 90.182 22.3876C90.4158 22.7401 90.7664 22.9752 91.1755 23.1514C91.4677 23.2689 91.7599 23.3277 92.0521 23.4452C92.169 23.4452 92.2859 23.4452 92.3444 23.4452C92.4028 23.4452 92.4612 23.504 92.5197 23.504C92.695 23.504 92.8119 23.504 92.9872 23.504C92.7534 23.6215 92.5197 23.739 92.2859 23.8565C92.1106 23.974 92.1106 24.1503 92.2275 24.2678C92.4028 24.4441 92.6366 24.4441 92.8119 24.3853C93.0457 24.3853 93.221 24.2678 93.3963 24.2091C93.8054 24.0915 94.2145 23.974 94.6236 23.8565C95.3833 23.6802 96.1431 23.504 96.8444 23.3277C97.195 23.2689 97.5457 23.1514 97.8963 23.0927C98.1885 23.0339 98.4223 23.0339 98.7145 22.9752C99.1236 22.9164 99.5327 22.8576 99.9418 22.7989C100.526 22.7401 101.111 22.6814 101.637 22.6226C101.987 22.5639 102.396 22.5639 102.747 22.5639C103.857 22.5051 104.968 22.3876 106.078 22.3288C106.546 22.2701 106.955 22.2701 107.422 22.2701C107.481 22.2701 107.539 22.2701 107.598 22.2701C108.591 22.2701 109.585 22.2701 110.578 22.2701C110.87 22.2701 111.221 22.2701 111.513 22.2701C111.572 22.2701 111.63 22.3288 111.689 22.3288C112.331 22.3876 112.974 22.3876 113.617 22.4463C114.961 22.5051 116.247 22.6226 117.591 22.7989C118.292 22.9164 119.052 22.9752 119.812 23.0339C119.987 23.0339 120.163 23.0927 120.396 23.1514C120.63 23.1514 120.864 23.2102 121.098 23.2102C121.156 23.2689 121.273 23.3277 121.331 23.3277C121.624 23.3865 121.974 23.4452 122.266 23.504C123.026 23.6802 123.786 23.8565 124.487 24.0328C124.838 24.0915 125.189 24.2091 125.539 24.3266C125.598 24.3266 125.598 24.3266 125.656 24.3853C125.948 24.5028 126.24 24.5616 126.533 24.4441C126.65 24.4441 126.766 24.3266 126.766 24.2091C126.825 24.0915 126.766 23.974 126.591 23.9153C126.357 23.7978 126.124 23.6802 125.948 23.5627C126.007 23.5627 126.124 23.5627 126.182 23.5627C126.416 23.5627 126.591 23.504 126.825 23.504C127 23.504 127.117 23.4452 127.292 23.4452C127.76 23.3865 128.111 23.1514 128.461 22.8576C128.929 22.4463 129.221 21.9763 129.513 21.4475C129.805 20.9774 130.098 20.4486 130.624 20.0373C130.974 19.7435 131.383 19.5672 131.851 19.4497C132.26 19.391 132.669 19.4497 133.078 19.391C133.253 19.391 133.487 19.391 133.663 19.391C133.838 19.391 133.955 19.3322 134.013 19.1559C134.13 19.1559 134.13 18.9797 133.955 18.8622ZM94.0392 23.3277C94.156 23.2102 94.2729 23.0927 94.3898 23.0339C94.5651 22.8576 94.7405 22.6226 94.9158 22.4463C94.9742 22.3876 95.0327 22.3876 95.0911 22.3876C95.5586 22.6226 96.0262 22.6814 96.5521 22.7401C96.5521 22.7401 96.6106 22.7401 96.669 22.7401C95.734 22.9164 94.9158 23.1514 94.0392 23.3277ZM97.6625 22.5639C97.9547 22.3288 98.3054 22.0938 98.5976 21.8588C98.7145 21.8 98.7729 21.6825 98.8314 21.565C98.8898 21.4475 98.9483 21.4475 99.0651 21.5062C99.4742 21.8 99.8833 22.035 100.409 22.035C100.468 22.035 100.468 22.0938 100.585 22.0938C99.5911 22.2701 98.5976 22.3876 97.6625 22.5639ZM101.637 21.9763C101.987 21.8 102.338 21.6237 102.63 21.3887C102.805 21.2712 102.981 21.0362 103.098 20.8599C103.214 20.6836 103.273 20.6836 103.448 20.8011C103.74 21.0362 104.091 21.2124 104.383 21.33C104.851 21.5062 105.26 21.565 105.727 21.6237C105.727 21.6237 105.786 21.6237 105.786 21.6825C104.383 21.7413 103.039 21.8588 101.637 21.9763ZM110.929 21.565C110.87 21.565 110.812 21.565 110.753 21.6237C110.52 21.6237 110.286 21.565 110.111 21.565C109.585 21.565 109 21.565 108.474 21.6237C108.007 21.6237 107.539 21.6237 107.13 21.6237C106.955 21.6237 106.779 21.6237 106.604 21.6237V21.565C106.721 21.565 106.779 21.5062 106.896 21.5062C107.481 21.3887 108.065 21.1537 108.533 20.8011C108.766 20.6249 109 20.3898 109.176 20.2136C109.176 20.2136 109.176 20.1548 109.176 20.0961C109.351 19.861 109.409 19.5672 109.468 19.2735C109.468 19.2147 109.526 19.0972 109.526 19.0384C109.701 19.4497 109.877 19.861 109.994 20.2723C110.286 20.6836 110.695 20.9774 111.221 21.2124C111.689 21.4475 112.214 21.565 112.624 21.6825C112.098 21.565 111.513 21.565 110.929 21.565ZM117.416 21.9763C116.013 21.8588 114.669 21.7413 113.266 21.6237C113.559 21.565 113.909 21.5062 114.201 21.4475C114.727 21.33 115.195 21.0949 115.604 20.8011C115.721 20.6836 115.838 20.6836 115.896 20.8599C116.13 21.2712 116.481 21.5062 116.89 21.7413C117.065 21.8588 117.24 21.9175 117.416 21.9763ZM118.526 22.1526C118.526 22.0938 118.526 22.0938 118.526 22.1526C118.585 22.0938 118.643 22.0938 118.701 22.035C119.169 21.9763 119.578 21.8 119.929 21.5062C120.046 21.4475 120.104 21.3887 120.221 21.5062C120.513 21.9175 120.981 22.2701 121.448 22.4463C121.448 22.4463 121.448 22.4463 121.507 22.5051C120.455 22.3876 119.461 22.2701 118.526 22.1526ZM122.383 22.7401C122.442 22.7401 122.5 22.6814 122.5 22.6814C122.968 22.6814 123.435 22.5639 123.903 22.3288C124.078 22.2113 124.137 22.4463 124.195 22.5051C124.429 22.7989 124.604 23.0927 124.955 23.2102V23.2689C124.137 23.1514 123.318 22.9164 122.383 22.7401Z" fill="#D83E54"></path> <path d="M126.766 25.913C126.24 25.5605 125.714 25.5017 125.188 25.7955C124.955 25.913 124.838 26.0893 124.779 26.3831C124.779 26.4419 124.779 26.5006 124.838 26.5594C125.072 27.0294 125.422 27.3232 126.007 27.382C126.299 27.4407 126.591 27.4407 126.883 27.3232C127.117 27.2057 127.351 27.0294 127.351 26.7944C127.351 26.3831 127.117 26.1481 126.766 25.913Z" fill="#D83E54"></path> <path d="M118.994 26.1481C119.169 26.2069 119.344 26.1481 119.52 26.2069C119.929 26.2069 120.338 26.2069 120.747 25.9719C120.981 25.8543 121.214 25.6781 121.214 25.3843C121.214 25.0317 120.981 24.7967 120.688 24.6204C120.162 24.2679 119.52 24.1504 118.877 24.1504C118.526 24.1504 118.175 24.2091 117.825 24.3267C117.591 24.3854 117.416 24.5029 117.299 24.738C117.123 25.0905 117.24 25.443 117.591 25.6781C118 25.9131 118.526 26.0306 118.994 26.1481Z" fill="#D83E54"></path> <path d="M123.903 25.8543C123.903 25.443 123.494 25.0317 123.026 25.0317C122.559 25.0317 122.149 25.443 122.149 25.8543C122.091 26.2656 122.559 26.6769 123.026 26.6769C123.494 26.6182 123.903 26.2656 123.903 25.8543Z" fill="#D83E54"></path> <path d="M95.3249 16.1594C95.3833 15.8656 95.4418 15.5718 95.5002 15.3368C95.5002 15.2193 95.5587 15.2193 95.6756 15.2193C95.734 15.2193 95.7924 15.278 95.9093 15.278C96.0846 15.3368 96.26 15.3955 96.4353 15.4543C96.4353 15.043 96.0262 14.5729 95.6171 14.5142C95.3833 14.4554 95.1496 14.4554 94.9743 14.5729C94.5652 14.8667 94.5652 15.2193 94.6236 15.6306C94.6236 15.8656 95.0911 16.2181 95.3249 16.1594Z" fill="#D83E54"></path> <path d="M102.338 17.452C102.338 18.0396 102.805 18.3922 103.331 18.3922C103.857 18.4509 104.325 17.9809 104.325 17.452C104.325 16.982 103.857 16.4532 103.331 16.5119C102.864 16.5119 102.338 17.0408 102.338 17.452Z" fill="#D83E54"></path> <path d="M94.2145 9.93116C94.2145 9.63738 93.9223 9.22608 93.5132 9.28484C93.1625 9.22608 92.7534 9.63738 92.7534 9.93116C92.7534 10.3425 93.1625 10.6362 93.4547 10.6362C93.8638 10.6362 94.2145 10.2837 94.2145 9.93116Z" fill="#D83E54"></path> <path d="M85.7988 13.6915C85.7988 13.2214 85.5066 12.8689 84.9806 12.8689C84.4547 12.8689 84.104 13.2214 84.104 13.6327C84.104 14.044 84.4547 14.4553 84.9222 14.4553C85.4482 14.5141 85.7988 14.1616 85.7988 13.6915Z" fill="#D83E54"></path> <path d="M88.4871 9.87232C88.3702 9.81357 88.3118 9.87232 88.3118 9.98984C88.3118 10.0486 88.3118 10.1074 88.3118 10.1661C88.3118 10.5187 88.1949 10.7537 87.9611 10.9887C87.6689 11.2237 87.3183 11.4 86.9092 11.2237C86.9092 11.2237 86.9092 11.2237 86.8507 11.2237C87.0261 11.5763 87.0261 11.8701 86.8507 12.2226C86.6754 12.5751 86.4417 12.7514 86.091 12.8689C86.6754 13.5153 86.617 14.1028 85.9741 14.6904C86.5585 14.9842 87.0261 15.6305 86.3832 16.5119C86.9676 16.3944 87.3767 16.6294 87.6689 17.0407C88.0196 17.5695 87.8443 18.0396 87.4352 18.4509C87.6105 18.6271 87.6689 18.5684 87.8443 18.4509C88.0196 18.3333 88.1949 18.2746 88.3702 18.2158C88.7793 18.0983 89.3053 18.3921 89.4222 18.8034C89.4222 18.8622 89.4806 18.9209 89.4806 18.9209C89.7144 18.6859 89.9482 18.3921 90.1819 18.1571C90.3572 17.9808 90.4157 17.8045 90.3572 17.6283C90.2988 17.452 90.1819 17.2757 90.065 17.0994C89.7728 16.7469 89.4806 16.4531 89.2469 16.1593C89.0131 15.9243 88.8378 15.6893 88.604 15.513C88.1949 15.2192 87.9611 14.8079 87.8443 14.4554C87.6689 14.0441 87.6689 13.574 87.8443 13.1627C88.0196 12.8102 88.1949 12.4576 88.5456 12.1638C88.7209 11.9876 88.8962 11.8113 89.13 11.635C89.7144 11.2237 90.3572 10.9299 91.0001 10.6949C91.2339 10.6362 91.4676 10.4599 91.643 10.4011C91.7598 10.4011 91.8183 10.4011 91.9352 10.4011C91.8767 10.4599 91.8767 10.5187 91.8767 10.5774C91.8183 11.1062 91.7598 11.635 91.7014 12.2226C91.7014 12.3989 91.7598 12.5751 91.7598 12.8102C91.7598 13.4565 91.8183 14.0441 92.0521 14.6316C92.1105 14.6904 92.1105 14.8079 92.1105 14.9254C92.2274 15.278 92.4027 15.6305 92.578 15.9243C92.7533 16.2768 92.8702 16.6294 93.0456 16.9232C93.104 16.9819 93.1624 17.0994 93.2793 17.1582C93.4546 17.217 93.63 17.3345 93.8637 17.3345C94.3313 17.3345 94.7988 17.3345 95.3248 17.3345C95.0326 17.0407 94.7988 16.7469 94.5066 16.4531C94.7404 16.4531 94.9157 16.4531 95.091 16.4531C94.3897 15.9831 94.3313 15.4542 94.6235 14.8079C94.0975 14.8079 93.7469 14.6316 93.5131 14.1616C93.2793 13.6915 93.4546 13.339 93.7469 12.9277C93.3378 12.9277 93.0456 12.7514 92.8118 12.4576C92.8118 13.0452 92.8702 13.574 93.104 14.1028C93.1624 14.2791 93.2209 14.3966 93.2793 14.5729C93.4546 14.9254 93.6884 15.3367 93.8637 15.6893C93.9222 15.8068 93.8637 16.0418 93.6884 16.1593C93.5131 16.2768 93.3378 16.2181 93.2209 16.0418C93.104 15.8655 92.9871 15.6893 92.8702 15.4542C92.7533 15.2192 92.6949 14.9842 92.578 14.7492C92.3443 14.2791 92.2274 13.809 92.1689 13.339C92.1105 12.8102 92.1105 12.2226 92.1105 11.6938C92.1105 11.3412 92.1689 11.0475 92.2274 10.6949C92.2274 10.4599 92.2858 10.2836 92.3443 9.98984C92.2274 10.0486 92.1689 10.0486 92.1105 10.1074C92.052 10.1074 91.9936 10.1074 91.9352 10.1074C91.4676 10.2836 91.0585 10.4011 90.591 10.5774C89.9482 10.8124 89.3637 11.165 88.8378 11.5763C88.5456 11.8113 88.2533 12.1051 88.0196 12.3989C87.8443 12.5751 87.7274 12.8102 87.6689 13.0452C87.6105 13.2802 87.6105 13.574 87.5521 13.809C87.4936 14.2203 87.552 14.6316 87.7274 15.0429C87.7274 15.1017 87.7858 15.2192 87.8443 15.278C87.9611 15.4542 88.078 15.6893 88.2533 15.8655C88.4871 16.1593 88.7209 16.3944 88.9546 16.6881C89.1884 16.9819 89.4806 17.2757 89.7144 17.5695C89.7728 17.6283 89.7144 17.8045 89.6559 17.8633C89.4806 18.0396 89.3053 18.0983 89.13 17.922C88.7793 17.6283 88.4287 17.2757 88.1365 16.9232C87.9027 16.6294 87.6689 16.3356 87.4936 16.0418C87.2598 15.6893 87.0845 15.3955 87.0261 14.9842C86.9676 14.1616 86.8508 13.2802 87.2598 12.4576C87.3767 12.2226 87.552 11.9876 87.7274 11.8113C87.9611 11.5175 88.2533 11.2825 88.5456 11.0475C88.8378 10.8124 89.13 10.6362 89.4222 10.4599C89.8313 10.2249 90.2988 10.0486 90.7663 9.87232C91.2339 9.69605 91.7014 9.57854 92.1689 9.40227C92.4611 9.28475 92.8118 9.226 93.104 9.10848C93.2209 9.04972 93.3962 8.99097 93.5131 8.93221C93.63 8.93221 93.7469 8.87345 93.8637 8.87345C94.2144 8.93221 94.5066 9.04972 94.7404 9.34351C94.9741 9.63729 94.9741 10.2836 94.7404 10.5774C94.6819 10.6949 94.565 10.7537 94.5066 10.8712C94.8572 11.0475 95.0326 11.2825 95.091 11.635C95.1495 11.9876 95.091 12.2814 94.7404 12.5751C95.2663 12.6339 95.5585 12.8689 95.7923 13.2215C95.9676 13.6328 95.9092 13.9853 95.6754 14.3379C95.7339 14.3379 95.7339 14.3379 95.7923 14.3379C96.3767 14.2791 96.9611 14.8079 96.9611 15.3367C96.9611 15.4542 97.078 15.513 97.1365 15.6305C97.1949 15.513 97.2534 15.4542 97.2534 15.3955C97.3702 15.278 97.5456 15.1017 97.6624 14.9842C97.6624 14.9842 97.8378 14.9842 97.8378 15.0429C97.9547 15.3367 98.0715 15.6893 98.1884 15.9831C98.3053 16.2768 98.4222 16.5706 98.5391 16.8644C98.7144 16.8057 98.8313 16.6881 98.7728 16.5119C98.7144 16.2768 98.8897 16.1006 99.065 15.9243C99.2988 15.6893 99.4741 15.3955 99.6495 15.1017C99.8248 14.8079 99.591 14.3379 99.2404 13.9853C98.9482 13.6915 98.656 13.3977 98.4222 13.0452C98.2469 12.8102 98.13 12.5164 97.9546 12.2226C97.7793 11.9288 97.604 11.635 97.4871 11.3412C97.3702 11.0475 97.3118 10.8124 97.1949 10.5187C97.078 10.0486 97.0196 9.57854 97.1949 9.16724C97.2534 9.04972 97.2534 8.87345 97.3118 8.75594C97.3702 8.75594 97.3702 8.69718 97.4287 8.69718C97.604 8.52091 97.7209 8.34464 97.8378 8.22713C98.3053 7.81583 98.8313 7.5808 99.3573 7.40453C99.7663 7.22825 100.234 7.1695 100.701 7.05198C101.052 6.99323 101.461 6.93447 101.812 6.87571C103.448 6.69944 105.085 6.81696 106.662 6.81696C106.779 6.81696 106.779 6.87571 106.779 6.93447C106.779 7.75707 106.779 8.57967 106.779 9.40227C106.779 9.63729 106.779 9.87232 106.779 10.1074C106.779 10.1661 106.779 10.1661 106.779 10.2249C106.779 11.0475 106.662 11.8113 106.429 12.6339C106.429 12.6927 106.37 12.8102 106.37 12.8689C106.312 13.104 106.253 13.2802 106.253 13.5153C106.253 13.574 106.312 13.6915 106.37 13.7503C106.487 13.8678 106.604 13.9266 106.721 14.0441C106.955 14.2791 107.247 14.1616 107.481 14.0441C107.831 13.8678 108.182 13.8678 108.591 13.9853C108.649 13.9853 108.708 14.0441 108.766 14.1028C108.942 13.6328 108.883 13.6328 108.766 13.4565C108.416 12.9864 108.416 12.4576 108.825 11.9876C108.942 11.8701 109 11.8113 109.117 11.6938C108.825 11.4588 108.649 11.165 108.649 10.7537C108.649 10.3424 108.883 10.1074 109.292 9.87232C108.942 9.63729 108.708 9.34351 108.708 8.93221C108.708 8.52091 108.942 8.22712 109.351 7.9921C109.292 7.93334 109.234 7.93334 109.175 7.87458C108.942 7.63955 108.766 7.40453 108.708 7.11074C108.649 6.87571 108.825 6.64068 108.942 6.46441C109 6.40566 109.059 6.40566 109.059 6.3469V6.28814C108.942 6.28814 108.825 6.28814 108.766 6.28814C108.591 6.22939 108.474 6.11187 108.299 6.05311C108.065 5.9356 107.831 5.75933 107.598 5.58306C107.598 5.64181 107.598 5.75933 107.598 5.81809C107.656 6.22939 107.714 6.64068 107.714 7.05198C107.773 7.5808 107.773 8.05085 107.773 8.57967C107.773 8.8147 107.773 8.99097 107.773 9.226C107.773 9.40227 107.714 9.57854 107.714 9.69605C107.656 10.5187 107.598 11.2825 107.598 12.1051C107.598 12.2226 107.539 12.3401 107.481 12.4576C107.422 12.5751 107.422 12.7514 107.364 12.8689C107.364 13.104 107.364 13.2802 107.364 13.5153C107.364 13.7503 107.188 13.809 106.896 13.7503C106.662 13.7503 106.546 13.6328 106.604 13.3977C106.604 13.2215 106.662 13.0452 106.662 12.8689C106.721 12.5751 106.896 12.2226 106.955 11.9288C107.13 11.2825 107.13 10.6362 107.13 9.93108C107.13 9.87232 107.072 9.81357 107.072 9.81357C107.072 9.75481 107.13 9.69605 107.13 9.63729C107.13 8.63842 107.13 7.63955 107.13 6.64068C107.13 6.52317 107.072 6.46441 106.955 6.46441C105.727 6.40566 104.5 6.40566 103.273 6.3469C102.981 6.3469 102.688 6.3469 102.396 6.3469C101.461 6.3469 100.585 6.22939 99.6495 6.40566C98.8897 6.52317 98.13 6.69944 97.4871 7.1695C97.1365 7.40453 96.7858 7.69831 96.5521 8.05085C96.2014 8.34464 96.0845 8.75594 96.0261 9.16724C95.9092 9.63729 95.9092 10.1074 95.9676 10.5774C96.0845 11.165 96.2598 11.6938 96.4936 12.2226C96.6689 12.5164 96.7858 12.8102 96.9611 13.104C97.0196 13.2215 97.1365 13.339 97.2534 13.4565C97.4287 13.574 97.604 13.6328 97.7793 13.6915C98.0131 13.809 98.0715 13.9853 97.9546 14.1616C97.7793 14.4554 97.3702 14.5141 97.078 14.3379C96.7274 14.1028 96.6105 13.809 96.4352 13.4565C96.2598 13.1627 96.143 12.8102 95.9676 12.5164C95.617 11.9288 95.4417 11.2825 95.3248 10.6362C95.2663 10.0486 95.3248 9.46102 95.5001 8.87345C95.5001 8.75594 95.5001 8.69718 95.5585 8.57967C95.7339 8.22712 95.9676 7.87458 96.143 7.52204C96.2014 7.46328 96.2599 7.40453 96.3183 7.34577C96.6689 7.05198 97.078 6.7582 97.4871 6.52317C97.9547 6.22938 98.4806 6.05311 99.0066 5.9356C99.5326 5.81809 100.059 5.75933 100.585 5.75933C101.461 5.75933 102.338 5.75933 103.214 5.81809C103.974 5.81809 104.734 5.87684 105.494 5.9356C106.02 5.9356 106.546 5.9356 107.072 5.9356C107.13 5.75933 107.188 5.5243 107.188 5.34803C107.188 5.28927 107.13 5.23051 107.072 5.23051C106.896 5.17176 106.896 5.34803 106.838 5.40679C106.312 5.9356 105.26 5.75933 104.968 5.113L104.851 5.05424C104.734 5.28927 104.5 5.40679 104.325 5.46554C104.033 5.58306 103.39 5.5243 103.214 5.28927C103.098 5.17176 102.981 4.99549 102.922 4.81922C102.864 4.7017 102.805 4.7017 102.747 4.81922C102.63 4.99549 102.455 5.17176 102.279 5.28927C101.812 5.5243 101.052 5.28927 100.818 4.81922C100.818 4.76046 100.76 4.76046 100.701 4.64294C100.585 5.17176 100.292 5.40679 99.8248 5.5243C99.3573 5.64181 98.9482 5.40679 98.656 5.05424C98.656 5.5243 98.4222 5.81809 98.0131 5.99436C97.6624 6.17063 97.2534 6.11187 96.9027 5.9356C96.9027 6.11187 96.8443 6.28814 96.8443 6.46441C96.7858 6.81696 96.5521 6.99323 96.2598 7.1695C96.143 7.22826 96.0261 7.28701 95.9092 7.34577C95.7339 7.28701 95.5001 7.22826 95.3248 7.22826C95.2079 7.22826 95.1495 7.28701 95.2079 7.40453C95.3248 7.63955 95.2663 7.81583 95.2079 7.9921C95.091 8.34464 94.8572 8.52091 94.5066 8.57967C94.2728 8.57967 94.0975 8.57967 93.8637 8.57967C93.7469 8.52091 93.5715 8.34464 93.4546 8.34464C93.1624 8.28588 92.8118 8.34464 92.5196 8.34464C92.4027 8.34464 92.2858 8.4034 92.2858 8.57967C92.2274 8.93221 91.8767 9.16724 91.5261 9.28475C91.2339 9.34351 91.0001 9.28475 90.7663 9.10848C90.591 8.99097 90.4741 9.04972 90.4741 9.226C89.8897 9.81357 89.0715 10.2249 88.4871 9.87232Z" fill="#D83E54"></path> <path d="M90.7079 8.6972C91.1755 8.6972 91.5261 8.40341 91.5261 7.8746C91.5261 7.40454 91.1755 7.052 90.7079 7.052C90.2988 7.052 89.8313 7.4633 89.8313 7.8746C89.8313 8.40341 90.1819 8.6972 90.7079 8.6972Z" fill="#D83E54"></path> <path d="M93.6301 8.10967C94.0391 8.10967 94.3314 7.75713 94.3314 7.46334C94.3314 7.16956 94.0391 6.81702 93.6301 6.81702C93.221 6.81702 92.8703 7.16956 92.9288 7.46334C92.9288 7.87464 93.221 8.10967 93.6301 8.10967Z" fill="#D83E54"></path> <path d="M93.7469 12.4577C94.156 12.4577 94.4482 12.1639 94.4482 11.7526C94.4482 11.3413 94.0391 11.0475 93.6885 11.0475C93.3378 10.9888 92.9287 11.4001 92.9287 11.7526C92.9872 12.1051 93.2794 12.4577 93.7469 12.4577Z" fill="#D83E54"></path> <path d="M88.6625 9.40228C89.13 9.40228 89.5391 8.99098 89.5391 8.57968C89.5391 8.16838 89.0716 7.75708 88.6625 7.75708C88.195 7.81584 87.8443 8.05087 87.7859 8.57968C87.7859 9.04973 88.2534 9.40228 88.6625 9.40228Z" fill="#D83E54"></path> <path d="M86.7923 10.695C87.2014 10.7537 87.6105 10.4012 87.6689 9.93112C87.6689 9.46106 87.2598 9.10852 86.8507 9.10852C86.3248 9.10852 85.9741 9.51982 85.9741 9.87236C85.9157 10.2837 86.2663 10.695 86.7923 10.695Z" fill="#D83E54"></path> <path d="M94.5065 14.2791C94.8571 14.2791 95.2078 14.0441 95.2078 13.6328C95.2078 13.2215 94.8571 12.9865 94.5065 12.9865C94.1558 12.9865 93.8052 13.2215 93.8052 13.6328C93.8052 14.0441 94.1558 14.2791 94.5065 14.2791Z" fill="#D83E54"></path> <path d="M85.5065 12.3989C85.9156 12.4577 86.3831 12.0464 86.3831 11.5763C86.3831 11.165 86.0325 10.8125 85.5065 10.8125C85.039 10.8125 84.6883 11.2238 84.6299 11.6351C84.6299 11.9876 85.039 12.4577 85.5065 12.3989Z" fill="#D83E54"></path> <path d="M92.8117 18.3334C92.7533 18.3334 92.7533 18.3922 92.7533 18.4509C92.5195 18.4509 92.4611 18.6272 92.4026 18.8035C92.2273 19.2148 92.3442 19.5086 92.7533 19.8023C93.0455 20.0374 93.6299 19.9199 93.8637 19.5673C93.9221 19.4498 94.039 19.3323 94.039 19.2148C93.9805 18.5684 93.513 18.1571 92.8117 18.3334Z" fill="#D83E54"></path> <path d="M95.0326 6.69948C95.5002 6.69948 95.9093 6.34694 95.9093 5.93564C95.9093 5.46558 95.5002 5.11304 95.0326 5.11304C94.6235 5.11304 94.156 5.46558 94.156 5.87688C94.2144 6.28818 94.682 6.69948 95.0326 6.69948Z" fill="#D83E54"></path> <path fill-rule="evenodd" clip-rule="evenodd" d="M205.604 75.5628C204.903 75.7979 204.552 75.5628 204.143 76.3267C208.059 76.3267 211.039 76.3267 214.955 76.3267C214.546 75.3278 214.078 75.6803 213.494 75.4453C212.968 75.2103 212.442 74.7402 212.091 73.9764C209.228 66.9843 205.663 57.4657 200.228 44.4803C200.169 44.4803 192.221 63.8702 188.422 73.6826C187.838 74.564 187.254 75.269 186.143 75.6803C185.851 75.7979 185.267 75.7391 185.15 76.2679C187.78 76.2092 190.818 76.2679 193.331 76.3267C193.039 75.2103 191.228 75.9741 190.526 74.9165C190.351 74.6227 190.351 74.2114 190.468 73.8001C191.461 70.921 192.689 67.9244 193.682 65.1628C193.974 64.4577 194.793 64.399 194.793 64.399L202.682 64.3402C202.682 64.3402 203.208 64.4578 203.442 64.9866C204.552 67.8657 205.896 70.9798 207.007 73.9176C207.299 74.9165 206.422 75.2691 205.604 75.5628ZM194.617 63.0476L198.591 53.2352L202.507 63.0476H194.617Z" fill="#D83E54"></path> <path fill-rule="evenodd" clip-rule="evenodd" d="M153.123 45.8905C151.429 45.8905 149.149 45.8905 147.162 45.8905C146.52 45.8905 145.877 45.8905 145.409 45.8905C145.409 46.2431 145.701 46.3018 145.994 46.4193C146.461 46.5956 146.87 46.7131 147.338 46.8894C147.922 47.0657 148.507 47.5945 148.507 48.2408C148.507 48.2996 148.448 68.277 148.448 68.277C148.448 68.277 133.37 49.1222 132.084 47.1832C131.792 46.7719 131.617 46.7131 131.734 45.8905C129.63 45.8905 126.24 45.8905 124.312 45.8905C125.656 46.8306 127.351 47.8883 128.169 49.4159C128.169 57.7594 128.169 65.3391 128.169 73.6239C128.169 74.3877 127.468 75.034 126.825 75.3278C125.89 75.7391 124.662 75.6216 123.727 75.4453C123.201 75.3866 122.734 75.2691 122.266 75.034C122.033 74.9165 121.331 74.6227 121.156 74.3289C119.052 69.4521 110.286 47.1244 109.994 46.4193C109.818 45.8905 109.584 45.3029 109.175 44.4803C109.117 44.4803 101.227 64.5165 97.3117 74.3877C96.9611 75.2691 95.6169 75.6216 95.2078 75.7391C94.9156 75.8566 94.6234 75.9154 94.3896 76.2679C96.7273 76.2679 99.8832 76.2679 102.455 76.2679C102.513 75.5628 101.344 75.5628 100.701 75.3278C99.8832 75.034 99.4741 74.564 99.5325 74.0352C99.5325 73.095 100.175 71.5674 100.526 70.5097C100.935 69.3933 102.045 66.1617 102.455 65.5741C102.805 65.1041 103.097 64.634 103.682 64.399C106.195 64.3402 108.708 64.399 111.279 64.3402C111.513 64.3402 111.805 64.399 112.039 64.5753C112.331 64.7515 112.507 64.9278 112.682 65.1628C113.792 68.0419 115.195 70.686 116.071 73.8001C116.013 73.9764 116.071 74.3289 116.013 74.5052C115.896 74.8578 115.662 75.1515 115.37 75.3866C114.786 75.7391 113.675 75.5041 113.5 76.2092C119.812 76.2092 126.766 76.2092 133.37 76.2092C133.312 75.8566 133.136 75.7979 132.961 75.5628C131.617 75.1515 130.273 75.0928 129.747 74.2702C129.63 67.3368 129.63 67.8069 129.688 51.1787L150.084 77.0905L150.143 47.947C150.494 47.3594 150.844 46.9481 151.545 46.7719C151.896 46.7131 153.299 46.7719 153.123 45.8905ZM103.507 63.0476L107.656 53.0001L111.747 63.0476H103.507Z" fill="#D83E54"></path> <path fill-rule="evenodd" clip-rule="evenodd" d="M33.2599 46.6543C30.5716 43.599 28.643 42.6001 24.3767 41.425C22.9157 41.0137 19.7014 40.6024 16.8378 41.1312C11.8703 42.0713 8.77285 43.9515 5.3248 47.8882C3.57155 49.9447 2.2274 53.0589 1.5261 55.6442C0.240384 60.6385 1.23389 66.0442 3.9222 70.3922C5.26636 72.5662 7.07805 74.5052 9.24039 75.9154C13.156 78.4419 17.1884 79.382 21.8053 78.9707C23.4417 78.7944 25.1949 78.2656 26.7144 77.6193C28.5845 76.738 30.5716 75.269 32.091 73.9176C33.9027 72.3312 35.5391 69.8634 36.4742 67.7481C37.4677 65.5154 37.9352 62.5187 37.9936 60.1097C38.169 55.2329 36.4157 50.2385 33.2599 46.6543ZM32.0326 65.5154C31.5651 70.0984 29.1105 75.4453 24.3767 76.7967C21.104 77.7368 17.7144 77.7956 14.9677 75.5041C13.5651 74.3289 12.3378 72.86 11.2858 71.3911C9.76636 69.1583 8.53909 66.4555 7.83779 63.8114C6.55207 59.2283 6.7274 54.1165 8.53909 49.7097C9.29883 47.8295 10.4677 46.008 12.1625 44.8329C13.6235 43.7752 16.1949 42.6589 18.0066 42.7176C21.8053 42.7764 25.7209 45.1854 28.0586 48.6521C31.4482 53.7052 32.617 59.5221 32.0326 65.5154Z" fill="#D83E54"></path> <path fill-rule="evenodd" clip-rule="evenodd" d="M97.3702 82.5549C91.7598 83.6713 84.5715 83.5537 79.6624 81.791C74.2857 80.4396 70.4286 77.5605 66.6883 74.5051C64.9935 72.6249 63.1234 70.8622 61.7792 68.6882C61.0779 67.6306 60.3182 66.5729 59.7338 65.339C59.1494 64.1639 58.3312 63.0475 58.039 61.6961C58.3312 61.5786 58.6818 61.5198 58.9741 61.4611C60.4935 60.9323 62.1883 60.1097 63.2403 59.052C65.1689 56.9955 65.9286 53.7051 64.5844 50.826C63.8831 49.5334 63.0065 48.4758 61.8377 47.7119C59.9091 46.4193 57.1039 45.8905 54.1234 45.9492C51.1429 46.008 43.7792 45.9492 43.1364 45.9492C43.0779 45.9492 43.0779 46.008 43.0195 46.008C42.7857 46.8306 44.3637 46.5368 44.8896 46.8306C45.5909 47.2419 45.9416 47.8882 46.2922 48.5933C46.2922 56.9955 46.4091 65.7503 46.2338 74.0938C45.7663 75.3277 44.3637 75.739 43.0195 75.9741C42.9026 76.0916 42.7273 76.1503 42.7273 76.3854C46.2338 76.3266 50.2663 76.3854 53.8896 76.3854C53.8896 76.1503 53.8312 76.0916 53.7728 75.8566C52.8961 75.5628 51.7857 75.4453 51.1429 74.9165C51.1429 74.8577 51.0844 74.8577 51.026 74.7989C50.9676 74.6227 50.7922 74.4464 50.7338 74.2701C50.6169 74.0351 50.6169 73.8001 50.5585 73.565C50.6169 69.8633 50.6169 65.5741 50.6169 61.8724C51.2013 61.8724 51.9611 61.8724 52.5455 61.8724C55.9935 69.0407 60.7857 74.7402 67.039 79.0294C68.7922 79.9696 70.5455 80.8509 72.2403 81.8498C77.0909 83.73 82.8767 85.5515 89.3637 84.9052C90.8831 84.7876 91.7013 84.6114 92.9286 84.3763C94.0974 84.0238 95.3247 83.7888 96.4351 83.3775C97.487 82.9074 98.8312 82.7899 99.4156 81.8498C98.7143 82.0848 98.0715 82.3198 97.3702 82.5549ZM50.5585 60.756C50.6169 56.7605 50.5 51.9424 50.5585 47.8294C50.8507 47.4181 51.4351 47.2419 52.0779 47.1244C54.2403 47.0656 56.6364 47.0656 58.3896 48.4758C59.8507 49.6509 60.7273 51.6486 60.7857 53.5289C60.9026 56.2905 59.9091 57.9357 58.565 59.2283C56.8702 60.6385 53.539 60.8147 50.5585 60.756Z" fill="#D83E54"></path> <path fill-rule="evenodd" clip-rule="evenodd" d="M70.9548 45.8905C70.8964 46.6543 72.1821 46.478 72.7665 46.6543C73.7016 46.9481 74.5782 47.3594 74.9288 48.3583C74.8704 56.3492 74.9288 64.869 74.8704 73.2125C74.8704 73.33 74.812 73.6825 74.7535 73.9176C74.5197 74.6814 74.2275 75.034 73.5262 75.3865C72.9418 75.6803 71.773 75.269 71.3055 76.2679C77.5587 76.3266 84.8055 76.3266 91.1756 76.3266C92.1107 74.2114 93.1626 72.2724 94.0977 70.2159C93.9223 70.0396 93.6886 69.9809 93.4548 69.8633C92.1107 72.1549 89.9483 75.034 88.8379 75.034C86.0327 75.034 81.0068 75.0927 80.773 75.0927C80.0717 75.034 79.5457 74.9164 79.3704 74.6227C79.1951 74.3876 79.1366 74.0351 79.0782 73.6825C79.0782 69.6871 79.0782 65.8679 79.0782 61.8136C79.0782 61.4611 79.3704 61.0498 79.6626 60.8148C79.9548 60.6385 80.3055 60.521 80.5392 60.521C82.76 60.521 85.1561 60.521 87.5522 60.521C88.1366 60.521 88.9548 61.5198 89.1886 62.3424C89.247 62.8713 89.3055 63.6938 89.8314 63.6351C89.8314 61.0498 89.8314 58.1707 89.8314 55.5854C89.0717 55.7617 89.3639 56.7605 89.0133 57.5244C88.6626 58.2882 88.0782 58.9933 87.1431 58.9933C84.4548 58.9933 79.1366 59.052 79.1366 59.052C79.1366 59.052 79.1366 51.7662 79.0782 48.0645C79.312 47.4181 80.0133 47.1831 80.0133 47.1831H89.1886C89.773 47.1831 90.8834 47.3594 91.1171 48.0057C91.2925 48.5345 91.1756 49.1221 91.0587 49.6509C91.0003 49.8272 90.4158 51.7074 90.5327 51.7074C91.4678 51.7074 91.4678 51.1198 91.7016 50.591C92.5197 48.652 93.5717 46.7718 94.1561 45.7729C89.1886 45.8905 78.2016 45.8905 70.9548 45.8905Z" fill="#D83E54"></path> <path fill-rule="evenodd" clip-rule="evenodd" d="M183.922 55.3504C183.279 53.2939 182.052 51.3549 180.532 49.8272C179.773 49.0634 178.896 48.4171 177.961 47.8882C177.026 47.3594 173.812 45.8905 168.669 45.8905C163.643 45.8905 161.773 45.8905 156.922 45.8905C156.513 45.8905 156.338 45.8317 156.279 46.008C156.279 46.5956 157.039 46.5368 158.032 46.7719C158.734 46.9481 159.786 47.1244 159.786 47.8882C159.903 56.5255 159.903 65.0453 159.844 74.1527C159.61 74.6815 159.435 74.9165 158.909 75.2103C158.5 75.3866 157.974 75.4453 157.507 75.5628C156.981 75.6216 156.162 75.7978 156.162 76.3267C158.266 76.3267 161.071 76.3267 163.175 76.3267C166.74 76.3267 170.188 76.3267 173.344 75.8566C179.481 74.9753 183.63 69.5696 184.506 63.6351C184.974 60.9323 184.682 57.9357 183.922 55.3504ZM179.247 65.7504C178.429 68.9233 176.617 71.0973 174.455 72.9188C172.058 74.564 168.786 75.0928 164.286 75.0928C164.344 65.9854 164.403 55.7029 164.227 47.2419C164.987 47.2419 166.097 47.2419 167.208 47.2419C169.604 47.2419 171.649 47.8295 173.461 48.4758C178.662 50.8261 180.883 58.4058 179.247 65.7504Z" fill="#D83E54"></path> </svg> 